<svg width="2328" height="1992" viewBox="0 0 2328 1992" fill="none" xmlns="http://www.w3.org/2000/svg" xmlns:xlink="http://www.w3.org/1999/xlink">
<path d="M0,118C0,52.83 52.83,0 118,0L1362.044,0C1421.058,0 1476.49,28.305 1511.092,76.108L1523.326,93.008C1563.948,149.125 1629.02,182.352 1698.296,182.352L1972,182.352L2150,182.352C2248.3,182.352 2328,262.046 2328,360.352L2328,1822C2328,1915.888 2251.88,1992 2158,1992L827.056,1992C800.898,1992 781.506,1967.718 787.29,1942.208L787.29,1942.208C802,1877.338 752.688,1815.594 686.172,1815.594L118,1815.594C52.83,1815.594 0,1762.764 0,1697.594L0,118Z" fill="#A9A9A9"/>
<path d="M0,118C0,52.83 52.83,0 118,0L1362.044,0C1421.058,0 1476.49,28.305 1511.092,76.108L1523.326,93.008C1563.948,149.125 1629.02,182.352 1698.296,182.352L1972,182.352L2150,182.352C2248.3,182.352 2328,262.046 2328,360.352L2328,1822C2328,1915.888 2251.88,1992 2158,1992L827.056,1992C800.898,1992 781.506,1967.718 787.29,1942.208L787.29,1942.208C802,1877.338 752.688,1815.594 686.172,1815.594L118,1815.594C52.83,1815.594 0,1762.764 0,1697.594L0,118Z" fill="url(#pattern_1_1_38)"/>
</svg>
