<svg width="100" height="100" viewBox="0 0 100 100" fill="none" xmlns="http://www.w3.org/2000/svg" xmlns:xlink="http://www.w3.org/1999/xlink">
<path d="M50.005,35C46.027,35 42.211,36.58 39.398,39.393C36.585,42.206 35.005,46.022 35.005,50C35.005,53.978 36.585,57.794 39.398,60.607C42.211,63.42 46.027,65 50.005,65C53.983,65 57.799,63.42 60.612,60.607C63.425,57.794 65.005,53.978 65.005,50C65.005,46.022 63.425,42.206 60.612,39.393C57.799,36.58 53.983,35 50.005,35ZM50.005,25C56.635,25 62.994,27.634 67.683,32.322C72.371,37.011 75.005,43.37 75.005,50C75.005,56.63 72.371,62.989 67.683,67.678C62.994,72.366 56.635,75 50.005,75C43.375,75 37.016,72.366 32.327,67.678C27.639,62.989 25.005,56.63 25.005,50C25.005,43.37 27.639,37.011 32.327,32.322C37.016,27.634 43.375,25 50.005,25ZM82.505,23.75C82.505,25.408 81.847,26.997 80.674,28.169C79.502,29.342 77.913,30 76.255,30C74.597,30 73.008,29.342 71.836,28.169C70.663,26.997 70.005,25.408 70.005,23.75C70.005,22.092 70.663,20.503 71.836,19.331C73.008,18.158 74.597,17.5 76.255,17.5C77.913,17.5 79.502,18.158 80.674,19.331C81.847,20.503 82.505,22.092 82.505,23.75ZM50.005,10C37.635,10 35.615,10.035 29.86,10.29C25.94,10.475 23.31,11 20.87,11.95C18.829,12.702 16.984,13.903 15.47,15.465C13.906,16.978 12.703,18.824 11.95,20.865C11,23.315 10.475,25.94 10.295,29.855C10.035,35.375 10,37.305 10,50C10,62.375 10.035,64.39 10.29,70.145C10.475,74.06 11,76.695 11.945,79.13C12.795,81.305 13.795,82.87 15.455,84.53C17.14,86.21 18.705,87.215 20.855,88.045C23.325,89 25.955,89.53 29.855,89.71C35.375,89.97 37.305,90 50,90C62.375,90 64.39,89.965 70.145,89.71C74.055,89.525 76.685,89 79.13,88.055C81.171,87.303 83.016,86.102 84.53,84.54C86.215,82.86 87.22,81.295 88.05,79.14C89,76.68 89.53,74.05 89.71,70.14C89.97,64.625 90,62.69 90,50C90,37.63 89.965,35.61 89.71,29.855C89.525,25.945 88.995,23.305 88.05,20.865C87.298,18.824 86.097,16.979 84.535,15.465C83.022,13.901 81.176,12.698 79.135,11.945C76.685,10.995 74.055,10.47 70.145,10.29C64.63,10.03 62.7,10 50,10M50,0C63.585,0 65.28,0.05 70.615,0.3C75.935,0.55 79.565,1.385 82.75,2.625C86.05,3.895 88.83,5.615 91.61,8.39C94.153,10.889 96.121,13.912 97.375,17.25C98.61,20.435 99.45,24.065 99.7,29.39C99.935,34.72 100,36.415 100,50C100,63.585 99.95,65.28 99.7,70.61C99.45,75.94 98.61,79.56 97.375,82.75C96.121,86.088 94.153,89.111 91.61,91.61C89.111,94.153 86.088,96.121 82.75,97.375C79.565,98.61 75.935,99.45 70.615,99.7C65.28,99.935 63.585,100 50,100C36.415,100 34.72,99.95 29.385,99.7C24.065,99.45 20.44,98.61 17.25,97.375C13.912,96.121 10.889,94.153 8.39,91.61C5.847,89.111 3.879,86.088 2.625,82.75C1.385,79.565 0.55,75.935 0.3,70.61C0.06,65.28 0,63.585 0,50C0,36.415 0.05,34.72 0.3,29.39C0.55,24.06 1.385,20.44 2.625,17.25C3.879,13.912 5.847,10.889 8.39,8.39C10.889,5.847 13.912,3.879 17.25,2.625C20.435,1.385 24.06,0.55 29.385,0.3C34.725,0.065 36.42,0 50.005,0Z" fill="#000000"/>
</svg>
